<?xml version="1.0" encoding="UTF-8" standalone="no"?>
<!-- Created with Inkscape (http://www.inkscape.org/) -->

<svg
   version="1.1"
   id="svg1"
   width="343.87476"
   height="420.62885"
   viewBox="0 0 343.87476 420.62885"
   xml:space="preserve"
   xmlns="http://www.w3.org/2000/svg"
   xmlns:svg="http://www.w3.org/2000/svg"><defs
     id="defs1" /><g
     id="g1"
     transform="translate(2216.0786,-529.81018)"><path
       d="m -2034.0943,950.43902 c -36.9224,0 -68.8745,-7.988 -95.8562,-23.9641 -26.6268,-16.331 -47.2181,-38.875 -61.774,-67.6318 -14.2008,-29.1119 -21.3013,-62.6616 -21.3013,-100.649 0,-38.3425 7.1005,-71.8922 21.3013,-100.649 14.5559,-29.1119 35.1472,-51.8333 61.774,-68.1644 26.9817,-16.331 58.9338,-24.4966 95.8562,-24.4966 44.3778,0 80.5902,11.0057 108.637,33.0171 28.0467,21.6564 45.7978,52.3659 53.2534,92.1285 h -70.2945 c -4.9704,-20.9464 -15.0884,-37.4549 -30.3544,-49.5257 -15.2661,-12.0708 -35.8574,-18.1062 -61.7741,-18.1062 -23.4315,0 -43.6678,5.5029 -60.7088,16.5086 -16.6861,10.6507 -29.6445,26.2717 -38.8751,46.863 -8.8755,20.2363 -13.3133,44.3779 -13.3133,72.4247 0,28.0468 4.4378,52.1883 13.3133,72.4247 9.2306,19.8812 22.189,35.3247 38.8751,46.3304 17.041,10.6507 37.2773,15.9761 60.7088,15.9761 25.9167,0 46.508,-5.5029 61.7741,-16.5086 15.266,-11.3607 25.384,-26.9817 30.3544,-46.863 h 70.2945 c -7.1005,37.6324 -24.8516,67.2768 -53.2534,88.9332 -28.0468,21.3014 -64.2592,31.9521 -108.637,31.9521 z"
       id="path52"
       style="font-weight:600;font-size:313.761px;line-height:1.25;font-family:'DM Sans';-inkscape-font-specification:'DM Sans, Semi-Bold';letter-spacing:0px;word-spacing:0px;stroke-width:0.999996"
       aria-label="Criblet" /><path
       style="fill:#788340;fill-opacity:1;stroke:none;stroke-width:1px;stroke-linecap:butt;stroke-linejoin:miter;stroke-opacity:1"
       d="m -1928.9928,717.39806 v 96.31446 l -32.7442,-32.38086 z"
       id="path35" /><path
       style="fill:#9ba853;fill-opacity:1;stroke:none;stroke-width:1px;stroke-linecap:butt;stroke-linejoin:miter;stroke-opacity:1"
       d="m -2216.0787,529.81017 287.0859,123.74414 v 63.84375 l -126.4531,-28.73632 z"
       id="path36" /><path
       id="path38"
       style="fill:#b3bc77;fill-opacity:1;stroke:none;stroke-width:1px;stroke-linecap:butt;stroke-linejoin:miter;stroke-opacity:1"
       d="m -2072.5176,684.7832 -69.1797,23.07032 c -3.8574,15.09531 -5.8261,31.85003 -5.8261,50.33984 0,28.04677 4.437,52.1894 13.3125,72.42578 9.2306,19.88118 22.1889,35.32439 38.875,46.33008 17.0409,10.65069 37.2775,15.97656 60.7089,15.97656 5.6575,0 11.0142,-0.31149 16.1641,-0.83594 l 89.4707,-174.6914 z" /><path
       id="path42"
       style="fill:#000000;fill-opacity:1;stroke:none;stroke-width:14;stroke-linecap:round;stroke-opacity:1;paint-order:fill markers stroke"
       d="m -2018.3105,725.73437 c -6.5622,0.0633 -13.0561,2.9016 -17.467,7.77723 -5.288,5.67585 -7.4892,14.02244 -5.6865,21.56787 1.6078,7.19026 6.7539,13.46216 13.4877,16.45065 6.8591,3.14693 15.1988,2.75324 21.7267,-1.03586 6.5451,-3.67832 11.1094,-10.6065 11.9163,-18.06946 1.0306,-8.14225 -2.5649,-16.66197 -9.0804,-21.64382 -4.2166,-3.28255 -9.5506,-5.10113 -14.8968,-5.04661 z" /><circle
       style="fill:#ffffff;fill-opacity:1;stroke:none;stroke-width:14;stroke-linecap:round;stroke-opacity:1;paint-order:fill markers stroke"
       id="circle42"
       cx="-2025.4268"
       cy="740.0351"
       r="6.5229549" /><circle
       style="fill:#ffffff;fill-opacity:1;stroke:none;stroke-width:14;stroke-linecap:round;stroke-opacity:1;paint-order:fill markers stroke"
       id="circle43"
       cx="-2017.6423"
       cy="748.79034"
       r="3.6193871" /></g></svg>
