<svg width="474" height="518" viewBox="0 0 474 518" fill="none" xmlns="http://www.w3.org/2000/svg">
<path d="M32.7934 0L296.878 31.377C406.564 44.4092 484.916 143.892 471.884 253.577L440.507 517.661L176.423 486.284C66.737 473.252 -11.6157 373.77 1.41644 264.085L32.7934 0Z" fill="white"/>
<path d="M240.814 451.608C203.891 451.608 171.939 443.62 144.958 427.644C118.331 411.313 97.7394 388.769 83.1835 360.012C68.9827 330.9 61.8822 297.351 61.8822 259.363C61.8822 221.021 68.9827 187.471 83.1835 158.714C97.7394 129.602 118.331 106.881 144.958 90.5499C171.939 74.2189 203.891 66.0532 240.814 66.0532C285.192 66.0532 321.404 77.059 349.451 99.0704C377.498 120.727 395.249 151.436 402.704 191.199H332.41C327.439 170.252 317.321 153.744 302.055 141.673C286.789 129.602 266.198 123.567 240.281 123.567C216.85 123.567 196.613 129.07 179.572 140.076C162.886 150.726 149.928 166.347 140.697 186.939C131.822 207.175 127.384 231.316 127.384 259.363C127.384 287.41 131.822 311.552 140.697 331.788C149.928 351.669 162.886 367.113 179.572 378.118C196.613 388.769 216.85 394.094 240.281 394.094C266.198 394.094 286.789 388.592 302.055 377.586C317.321 366.225 327.439 350.604 332.41 330.723H402.704C395.604 368.355 377.853 398 349.451 419.656C321.404 440.957 285.192 451.608 240.814 451.608Z" fill="black"/>
<path d="M345.915 218.567V314.882L313.171 282.501L345.915 218.567Z" fill="#788340"/>
<path d="M58.8295 30.9792L345.915 154.723V218.567L219.462 189.831L58.8295 30.9792Z" fill="#9BA853"/>
<path d="M202.391 185.952L133.211 209.023C129.353 224.118 127.385 240.873 127.385 259.362C127.385 287.409 131.822 311.552 140.697 331.788C149.928 351.669 162.886 367.113 179.572 378.118C196.613 388.769 216.85 394.095 240.281 394.095C245.939 394.095 251.295 393.783 256.445 393.259L345.916 218.568L202.391 185.952Z" fill="#B3BC77"/>
<path d="M256.597 226.903C250.035 226.967 243.541 229.805 239.13 234.681C233.842 240.356 231.641 248.703 233.444 256.249C235.052 263.439 240.198 269.711 246.932 272.699C253.791 275.846 262.13 275.452 268.658 271.663C275.203 267.985 279.768 261.057 280.575 253.594C281.605 245.452 278.01 236.932 271.494 231.95C267.278 228.667 261.944 226.849 256.597 226.903Z" fill="black"/>
<path d="M249.481 247.727C253.084 247.727 256.004 244.807 256.004 241.204C256.004 237.602 253.084 234.681 249.481 234.681C245.879 234.681 242.958 237.602 242.958 241.204C242.958 244.807 245.879 247.727 249.481 247.727Z" fill="white"/>
<path d="M257.266 253.579C259.265 253.579 260.885 251.958 260.885 249.959C260.885 247.961 259.265 246.34 257.266 246.34C255.267 246.34 253.646 247.961 253.646 249.959C253.646 251.958 255.267 253.579 257.266 253.579Z" fill="white"/>
</svg>
