<?xml version="1.0" encoding="UTF-8" standalone="no"?>
<!-- Created with Inkscape (http://www.inkscape.org/) -->

<svg
   version="1.1"
   id="svg1"
   width="743.66174"
   height="571.65271"
   viewBox="0 0 743.66174 571.65271"
   xml:space="preserve"
   xmlns="http://www.w3.org/2000/svg"
   xmlns:svg="http://www.w3.org/2000/svg"><defs
     id="defs1" /><g
     id="g1"
     transform="translate(2672.6543,-529.81018)"><path
       id="path32"
       style="fill:#788340;fill-opacity:1;stroke:none;stroke-width:1px;stroke-linecap:butt;stroke-linejoin:miter;stroke-opacity:1"
       d="m -2224.942,1027.2516 57.6738,-19.4688 -31.9179,80.9239 z" /><path
       id="path33"
       style="fill:#9ba853;fill-opacity:1;stroke:none;stroke-width:1px;stroke-linecap:butt;stroke-linejoin:miter;stroke-opacity:1"
       d="m -2250.4225,966.4508 186.4043,14.58203 -160.6484,46.87307 z" /><path
       id="path34"
       style="fill:#9ba853;fill-opacity:1;stroke:none;stroke-width:1px;stroke-linecap:butt;stroke-linejoin:miter;stroke-opacity:1"
       d="m -2331.1426,771.03319 -341.5117,330.42971 342.2402,-131.52346 -0.01,-2.66015 v 2.65039 l -27.5976,-11.88281 0.01,-0.0137 v 0 z m -24.2636,187.20508 24.9609,1.95313 v -0.002 z" /><path
       style="fill:#788340;fill-opacity:1;stroke:none;stroke-width:1px;stroke-linecap:butt;stroke-linejoin:miter;stroke-opacity:1"
       d="m -1928.9928,717.39806 v 96.31446 l -32.7442,-32.38086 z"
       id="path35" /><path
       style="fill:#9ba853;fill-opacity:1;stroke:none;stroke-width:1px;stroke-linecap:butt;stroke-linejoin:miter;stroke-opacity:1"
       d="m -2216.0787,529.81017 287.0859,123.74414 v 63.84375 l -126.4531,-28.73632 z"
       id="path36" /><path
       id="path37"
       style="fill:#788340;fill-opacity:1;stroke:none;stroke-width:1px;stroke-linecap:butt;stroke-linejoin:miter;stroke-opacity:1"
       d="m -2358.0165,958.03283 27.6016,2.16016 -0.01,9.73632 -27.5976,-11.88281 z" /><path
       id="path38"
       style="fill:#b3bc77;fill-opacity:1;stroke:none;stroke-width:1px;stroke-linecap:butt;stroke-linejoin:miter;stroke-opacity:1"
       d="m -2358.0182,958.03283 294,23 135.0256,-263.63475 -143.5256,-32.61525 -258.625,86.25" /><path
       id="path42"
       style="fill:#000000;fill-opacity:1;stroke:none;stroke-width:14;stroke-linecap:round;stroke-opacity:1;paint-order:fill markers stroke"
       d="m -2018.3105,725.73437 c -6.5622,0.0633 -13.0561,2.9016 -17.467,7.77723 -5.288,5.67585 -7.4892,14.02244 -5.6865,21.56787 1.6078,7.19026 6.7539,13.46216 13.4877,16.45065 6.8591,3.14693 15.1988,2.75324 21.7267,-1.03586 6.5451,-3.67832 11.1094,-10.6065 11.9163,-18.06946 1.0306,-8.14225 -2.5649,-16.66197 -9.0804,-21.64382 -4.2166,-3.28255 -9.5506,-5.10113 -14.8968,-5.04661 z" /><circle
       style="fill:#ffffff;fill-opacity:1;stroke:none;stroke-width:14;stroke-linecap:round;stroke-opacity:1;paint-order:fill markers stroke"
       id="circle42"
       cx="-2025.4268"
       cy="740.0351"
       r="6.5229549" /><circle
       style="fill:#ffffff;fill-opacity:1;stroke:none;stroke-width:14;stroke-linecap:round;stroke-opacity:1;paint-order:fill markers stroke"
       id="circle43"
       cx="-2017.6423"
       cy="748.79034"
       r="3.6193871" /></g></svg>
