<?xml version="1.0" encoding="UTF-8" standalone="no"?>
<!-- Created with Inkscape (http://www.inkscape.org/) -->

<svg
   version="1.1"
   id="svg1"
   width="1243.2246"
   height="571.65271"
   viewBox="0 0 1243.2246 571.65271"
   xml:space="preserve"
   xmlns="http://www.w3.org/2000/svg"
   xmlns:svg="http://www.w3.org/2000/svg"><defs
     id="defs1" /><g
     id="g1"
     transform="translate(2756.6543,602.18982)"><path
       id="path20"
       style="font-weight:600;font-size:315.905px;line-height:1.25;font-family:'DM Sans';-inkscape-font-specification:'DM Sans, Semi-Bold';letter-spacing:0px;word-spacing:0px;stroke-width:0.999998"
       d="m -2050.9004,-404.07227 v 227.45118 h 33.8008 l 4.1074,-22.11329 c 3.3697,5.05448 7.5822,9.58253 12.6367,13.58399 5.0545,3.79086 10.9502,6.73967 17.6895,8.8457 6.7393,2.31664 14.322,3.47461 22.7461,3.47461 14.9528,0 28.1157,-3.57973 39.4883,-10.74023 11.5831,-7.16051 20.6392,-17.05913 27.1679,-29.69531 6.5287,-12.63619 9.793,-26.85126 9.793,-42.64649 0,-16.21643 -3.3701,-30.5373 -10.1094,-42.96289 -6.5287,-12.63619 -15.5848,-22.53481 -27.1679,-29.69531 -11.3726,-7.37111 -24.5355,-11.05664 -39.4883,-11.05664 -12.8468,0 -23.588,2.63141 -32.2227,7.89648 -8.6347,5.05448 -15.4787,11.47916 -20.5332,19.27149 v -5.82813 l -32.7441,-32.38086 27.3515,-53.4043 z m 192.0742,0 v 227.45118 h 37.9082 v -227.45118 z m 268.6309,26.22071 -4.4238,42.01562 h -27.1661 v 31.90625 h 27.1661 v 73.92188 c 0,13.26799 2.212,23.79753 6.6347,31.58984 4.4227,7.79232 10.53,13.37254 18.3223,16.74219 8.0029,3.36965 17.3744,5.05469 28.1152,5.05469 h 27.168 v -32.22071 h -19.5859 c -8.2135,0 -14.1092,-1.47538 -17.6895,-4.42382 -3.3697,-3.15905 -5.0547,-8.73927 -5.0547,-16.74219 v -73.92188 h 43.2793 v -31.90625 h -43.2793 v -42.01562 z m -125.5215,38.22461 c -16.0059,0 -30.1171,3.57973 -42.332,10.74023 -12.0044,7.1605 -21.376,17.05913 -28.1153,29.69531 -6.5287,12.63619 -9.7929,27.37831 -9.7929,44.22657 0,16.21643 3.3701,30.5373 10.1093,42.96289 6.7393,12.42557 16.1109,22.11259 28.1153,29.0625 12.0043,6.7393 25.9039,10.10937 41.6992,10.10937 12.4256,0 23.588,-2.21015 33.4863,-6.63281 9.8984,-4.63327 18.2178,-10.84636 24.9571,-18.63867 6.7392,-8.00292 11.5827,-16.95321 14.5312,-26.85156 h -38.541 c -2.7379,6.31809 -7.0543,11.37125 -12.9512,15.1621 -5.6863,3.79086 -12.9516,5.6875 -21.7969,5.6875 -8.0028,0 -15.2701,-1.79084 -21.7988,-5.37109 -6.3181,-3.79086 -11.3712,-9.26723 -15.1621,-16.42773 -3.0279,-6.0557 -4.6969,-13.15019 -5.1641,-21.16407 h 119.2051 c 0.4212,-2.73783 0.6309,-5.3712 0.6309,-7.89843 v -6.94922 c 0,-14.53162 -3.1585,-27.59066 -9.4766,-39.17383 -6.3181,-11.79378 -15.2685,-21.16533 -26.8515,-28.11523 -11.5832,-6.94991 -25.1673,-10.42383 -40.752,-10.42383 z m -0.3164,30.95898 c 10.9514,0 20.1133,3.36812 27.4844,10.10742 7.3711,6.5287 11.2663,15.58479 11.6875,27.16797 h -80.9981 c 0.8721,-6.01491 2.4345,-11.3386 4.8653,-15.79492 3.7909,-7.1605 8.9517,-12.53107 15.4804,-16.11133 6.5287,-3.58024 13.6882,-5.36914 21.4805,-5.36914 z m -251.7852,2.21094 c 8.8453,0 16.7435,2.10629 23.6934,6.31836 6.9499,4.21206 12.3204,10.10774 16.1113,17.68945 4.0015,7.58171 6.002,16.32235 6.002,26.2207 0,10.10895 -2.0005,18.95345 -6.002,26.53516 -3.7909,7.3711 -9.1614,13.26874 -16.1113,17.69141 -6.9499,4.21206 -14.8481,6.31836 -23.6934,6.31836 -9.056,0 -17.0579,-2.1063 -24.0078,-6.31836 -6.7393,-4.42267 -12.1098,-10.32031 -16.1113,-17.69141 -3.7909,-7.58171 -5.6855,-16.42621 -5.6855,-26.53516 0,-9.89835 1.8946,-18.63899 5.6855,-26.2207 4.0015,-7.58171 9.372,-13.47739 16.1113,-17.68945 6.9499,-4.21207 14.9518,-6.31836 24.0078,-6.31836 z" /><path
       id="path11"
       style="fill:#788340;fill-opacity:1;stroke:none;stroke-width:1px;stroke-linecap:butt;stroke-linejoin:miter;stroke-opacity:1"
       d="m -2308.942,-104.74841 57.6738,-19.46875 -31.9179,80.92383 z" /><path
       id="path8"
       style="fill:#9ba853;fill-opacity:1;stroke:none;stroke-width:1px;stroke-linecap:butt;stroke-linejoin:miter;stroke-opacity:1"
       d="m -2334.4225,-165.54919 186.4043,14.58203 -160.6484,46.87305 z" /><path
       id="path7"
       style="fill:#9ba853;fill-opacity:1;stroke:none;stroke-width:1px;stroke-linecap:butt;stroke-linejoin:miter;stroke-opacity:1"
       d="m -2415.1426,-360.9668 -341.5117,330.429691 342.2402,-131.523441 -0.01,-2.66015 v 2.65039 l -27.5976,-11.88281 0.01,-0.0137 v 0 z m -24.2636,187.20508 24.9609,1.95313 v -0.002 z" /><path
       style="fill:#788340;fill-opacity:1;stroke:none;stroke-width:1px;stroke-linecap:butt;stroke-linejoin:miter;stroke-opacity:1"
       d="m -2012.9928,-414.60193 v 96.31446 l -32.7442,-32.38086 z"
       id="path12" /><path
       style="fill:#9ba853;fill-opacity:1;stroke:none;stroke-width:1px;stroke-linecap:butt;stroke-linejoin:miter;stroke-opacity:1"
       d="m -2300.0787,-602.18982 287.0859,123.74414 v 63.84375 l -126.4531,-28.73632 z"
       id="path4" /><path
       id="path10"
       style="fill:#788340;fill-opacity:1;stroke:none;stroke-width:1px;stroke-linecap:butt;stroke-linejoin:miter;stroke-opacity:1"
       d="m -2442.0165,-173.96716 27.6016,2.16016 -0.01,9.73632 -27.5976,-11.88281 z" /><path
       id="path6"
       style="fill:#b3bc77;fill-opacity:1;stroke:none;stroke-width:1px;stroke-linecap:butt;stroke-linejoin:miter;stroke-opacity:1"
       d="m -2442.0182,-173.96716 294,23 135.0256,-263.63475 -143.5256,-32.61525 -258.625,86.25" /><path
       style="font-weight:600;font-size:315.905px;line-height:1.25;font-family:'DM Sans';-inkscape-font-specification:'DM Sans, Semi-Bold';letter-spacing:0px;word-spacing:0px;stroke-width:0.999998"
       d="m -2120.4678,-176.62045 v -159.21612 h 37.9086 v 159.21612 z"
       id="path22" /><path
       style="font-weight:600;font-size:315.905px;line-height:1.25;font-family:'DM Sans';-inkscape-font-specification:'DM Sans, Semi-Bold';letter-spacing:0px;word-spacing:0px;stroke-width:0.999998"
       d="m -2255.4614,-164.62045 v -159.21612 h 33.8018 l 3.475,29.69507 v 0 c 0,0 8.5294,-12.84681 14.2157,-17.69068 5.6863,-5.05448 12.3203,-8.95064 19.902,-11.68849 7.7923,-2.73784 16.3218,-4.10676 25.5883,-4.10676 v 40.11993 h -13.268 c -6.3181,0 -12.3203,0.84241 -18.0066,2.52724 -5.6863,1.47423 -10.6354,4.00147 -14.8475,7.58172 -4.0015,3.36965 -7.1605,8.10823 -9.4772,14.21573 -2.3166,5.89689 -3.4749,13.37331 -3.4749,22.42925 v 76.13311 z"
       id="path21" /><path
       id="text13"
       style="font-weight:600;font-size:315.905px;line-height:1.25;font-family:'DM Sans';-inkscape-font-specification:'DM Sans, Semi-Bold';letter-spacing:0px;word-spacing:0px;stroke-width:0.999996"
       d="m -2407.9297,-491.69141 c -11.5662,1.2e-4 -28.766,0.68788 -49.2695,7.20508 -48.4779,15.27792 -83.0883,57.09543 -92.6934,113.1875 -2.808,16.3195 -3.542,32.95834 -2.7715,49.48633 0.9593,19.69435 4.505,39.35262 11.5235,57.81836 2.8962,7.71434 14.9514,38.80228 46.6133,61.78711 46.9924,34.81731 118.0042,29.25005 154.2363,12.62891 13.6392,-6.22093 26.0751,-15.10511 36.2305,-26.14454 8.2301,-8.88942 14.9289,-19.17735 19.7519,-30.28906 2.5208,-5.74043 4.5472,-11.69183 6.2109,-17.73242 0.6099,-1.26068 0.022,-3.00813 -1.3984,-3.375 -0.9491,-0.24346 -1.936,0.0552 -2.9082,-0.0469 h -42.4648 c -6.5776,21.3981 -20.2906,36.30158 -36,44.17383 -45.6533,23.11643 -152.4833,14.32105 -148.3946,-118.08008 4.1488,-124.57711 117.0928,-129.53467 157.793,-97.16796 6.9789,5.44068 12.9639,12.39335 17.5566,19.79687 3.6318,5.85447 6.8246,16.12603 9.4707,27.22852 l 43.6856,-14.56836 c -1.1553,-5.75725 -2.3806,-11.47777 -4.8125,-16.85352 -5.9047,-13.19613 -14.2566,-25.3496 -24.8359,-35.23633 -30.4248,-28.81041 -67.3793,-33.81866 -97.5235,-33.81836 z" /><path
       id="path13-2"
       style="fill:#000000;fill-opacity:1;stroke:none;stroke-width:14;stroke-linecap:round;stroke-opacity:1;paint-order:fill markers stroke"
       d="m -2102.3105,-406.26562 c -6.5622,0.0633 -13.0561,2.9016 -17.467,7.77723 -5.288,5.67585 -7.4892,14.02244 -5.6865,21.56787 1.6078,7.19026 6.7539,13.46216 13.4877,16.45065 6.8591,3.14693 15.1988,2.75324 21.7267,-1.03586 6.5451,-3.67832 11.1094,-10.6065 11.9163,-18.06946 1.0306,-8.14225 -2.5649,-16.66197 -9.0804,-21.64382 -4.2166,-3.28255 -9.5506,-5.10113 -14.8968,-5.04661 z" /><circle
       style="fill:#ffffff;fill-opacity:1;stroke:none;stroke-width:14;stroke-linecap:round;stroke-opacity:1;paint-order:fill markers stroke"
       id="path13-2-6"
       cx="-2109.4268"
       cy="-391.9649"
       r="6.5229549" /><circle
       style="fill:#ffffff;fill-opacity:1;stroke:none;stroke-width:14;stroke-linecap:round;stroke-opacity:1;paint-order:fill markers stroke"
       id="path13-2-6-2"
       cx="-2101.6423"
       cy="-383.20966"
       r="3.6193871" /></g></svg>
