<svg width="1447" height="572" viewBox="0 0 1447 572" fill="none" xmlns="http://www.w3.org/2000/svg">
<path d="M705.754 198.118V425.569H739.555L743.662 403.456C747.032 408.51 751.244 413.038 756.299 417.04C761.353 420.83 767.249 423.779 773.988 425.885C780.728 428.202 788.31 429.36 796.734 429.36C811.687 429.36 824.85 425.78 836.223 418.62C847.806 411.459 856.862 401.56 863.391 388.924C869.919 376.288 873.184 362.073 873.184 346.278C873.184 330.061 869.814 315.741 863.074 303.315C856.546 290.679 847.489 280.78 835.906 273.62C824.534 266.249 811.371 262.563 796.418 262.563C783.571 262.563 772.83 265.194 764.195 270.459C755.561 275.514 748.717 281.939 743.662 289.731V283.903L710.918 251.522L738.27 198.118H705.754ZM897.828 198.118V425.569H935.736V198.118H897.828ZM1166.46 224.338L1162.04 266.354H1134.87V298.26H1162.04V372.182C1162.04 385.45 1164.25 395.98 1168.67 403.772C1173.09 411.564 1179.2 417.145 1186.99 420.514C1195 423.884 1204.37 425.569 1215.11 425.569H1242.28V393.348H1222.69C1214.48 393.348 1208.58 391.873 1205 388.924C1201.63 385.765 1199.95 380.185 1199.95 372.182V298.26H1243.22V266.354H1199.95V224.338H1166.46ZM1040.94 262.563C1024.93 262.563 1010.82 266.143 998.605 273.303C986.601 280.464 977.23 290.362 970.49 302.999C963.962 315.635 960.697 330.377 960.697 347.225C960.697 363.442 964.067 377.762 970.807 390.188C977.546 402.614 986.917 412.301 998.922 419.25C1010.93 425.99 1024.83 429.36 1040.62 429.36C1053.05 429.36 1064.21 427.15 1074.11 422.727C1084.01 418.094 1092.33 411.881 1099.06 404.088C1105.8 396.085 1110.65 387.135 1113.6 377.237H1075.05C1072.32 383.555 1068 388.608 1062.1 392.399C1056.42 396.19 1049.15 398.086 1040.31 398.086C1032.3 398.086 1025.04 396.296 1018.51 392.715C1012.19 388.924 1007.14 383.448 1003.35 376.288C1000.32 370.232 998.649 363.137 998.182 355.124H1117.39C1117.81 352.386 1118.02 349.752 1118.02 347.225V340.276C1118.02 325.744 1114.86 312.685 1108.54 301.102C1102.22 289.308 1093.27 279.937 1081.69 272.987C1070.11 266.037 1056.52 262.563 1040.94 262.563ZM1040.62 293.522C1051.57 293.522 1060.73 296.89 1068.11 303.629C1075.48 310.158 1079.37 319.214 1079.79 330.797H998.795C999.667 324.782 1001.23 319.459 1003.66 315.002C1007.45 307.842 1012.61 302.471 1019.14 298.891C1025.67 295.311 1032.83 293.522 1040.62 293.522ZM788.836 295.733C797.681 295.733 805.579 297.839 812.529 302.051C819.479 306.263 824.85 312.159 828.641 319.741C832.642 327.322 834.643 336.063 834.643 345.961C834.643 356.07 832.642 364.915 828.641 372.497C824.85 379.868 819.479 385.765 812.529 390.188C805.579 394.4 797.681 396.506 788.836 396.506C779.78 396.506 771.778 394.4 764.828 390.188C758.089 385.765 752.718 379.868 748.717 372.497C744.926 364.915 743.031 356.07 743.031 345.961C743.031 336.063 744.926 327.322 748.717 319.741C752.718 312.159 758.089 306.263 764.828 302.051C771.778 297.839 779.78 295.733 788.836 295.733Z" fill="black"/>
<path d="M447.712 497.441L505.386 477.973L473.468 558.896L447.712 497.441Z" fill="#788340"/>
<path d="M422.232 436.641L608.636 451.223L447.988 498.096L422.232 436.641Z" fill="#9BA853"/>
<path d="M341.512 241.223L0 571.653L342.24 440.129L342.23 437.469V440.12L314.633 428.237L314.643 428.223L341.512 241.223ZM317.248 428.428L342.209 430.381V430.379L317.248 428.428Z" fill="#9BA853"/>
<path d="M743.661 187.588V283.902L710.917 251.521L743.661 187.588Z" fill="#788340"/>
<path d="M456.576 0L743.661 123.744V187.588L617.208 158.852L456.576 0Z" fill="#9BA853"/>
<path d="M314.638 428.223L342.24 430.383L342.229 440.119L314.632 428.236L314.638 428.223Z" fill="#788340"/>
<path d="M314.636 428.223L608.636 451.223L743.662 187.588L600.136 154.973L341.511 241.223" fill="#B3BC77"/>
<path d="M636.187 425.569V266.353H674.095V425.569H636.187Z" fill="black"/>
<path d="M501.193 437.569V278.353H534.995L538.47 308.048C538.47 308.048 546.999 295.202 552.685 290.358C558.372 285.303 565.006 281.407 572.587 278.669C580.38 275.931 588.909 274.562 598.176 274.562V314.682H584.908C578.59 314.682 572.587 315.525 566.901 317.21C561.215 318.684 556.266 321.211 552.054 324.791C548.052 328.161 544.893 332.9 542.576 339.007C540.26 344.904 539.102 352.38 539.102 361.436V437.569H501.193Z" fill="black"/>
<path d="M348.725 110.498C337.158 110.498 319.958 111.186 299.455 117.703C250.977 132.981 216.367 174.799 206.762 230.891C203.954 247.21 203.22 263.849 203.99 280.377C204.949 300.072 208.495 319.73 215.514 338.196C218.41 345.91 230.465 376.998 262.127 399.983C309.119 434.8 380.131 429.233 416.363 412.612C430.002 406.391 442.438 397.507 452.594 386.467C460.824 377.578 467.523 367.29 472.346 356.178C474.866 350.438 476.893 344.486 478.557 338.446C479.166 337.185 478.579 335.437 477.158 335.071C476.209 334.827 475.222 335.126 474.25 335.024H431.785C425.207 356.422 411.494 371.325 395.785 379.198C350.132 402.314 243.302 393.519 247.391 261.117C251.539 136.54 364.483 131.583 405.184 163.949C412.162 169.39 418.147 176.343 422.74 183.746C426.372 189.601 429.565 199.872 432.211 210.975L475.896 196.406C474.741 190.649 473.516 184.929 471.084 179.553C465.179 166.357 456.827 154.203 446.248 144.317C415.823 115.506 378.869 110.498 348.725 110.498Z" fill="black"/>
<path d="M654.344 195.924C647.782 195.988 641.288 198.826 636.877 203.702C631.589 209.377 629.387 217.724 631.19 225.269C632.798 232.46 637.944 238.732 644.678 241.72C651.537 244.867 659.877 244.473 666.405 240.684C672.95 237.006 677.514 230.078 678.321 222.615C679.352 214.472 675.756 205.953 669.24 200.971C665.024 197.688 659.69 195.87 654.344 195.924Z" fill="black"/>
<path d="M647.228 216.748C650.83 216.748 653.75 213.827 653.75 210.225C653.75 206.622 650.83 203.702 647.228 203.702C643.625 203.702 640.705 206.622 640.705 210.225C640.705 213.827 643.625 216.748 647.228 216.748Z" fill="white"/>
<path d="M655.012 222.6C657.011 222.6 658.631 220.979 658.631 218.98C658.631 216.981 657.011 215.361 655.012 215.361C653.013 215.361 651.393 216.981 651.393 218.98C651.393 220.979 653.013 222.6 655.012 222.6Z" fill="white"/>
</svg>
