<?xml version="1.0" encoding="UTF-8" standalone="no"?>
<!-- Created with Inkscape (http://www.inkscape.org/) -->

<svg
   version="1.1"
   id="svg1"
   width="963.29016"
   height="230.25505"
   viewBox="0 0 963.29016 230.25505"
   sodipodi:docname="Gemini_Generated_Image_6zjgp06zjgp06zjg.svg"
   xml:space="preserve"
   inkscape:version="1.3.2 (091e20e, 2023-11-25, custom)"
   xmlns:inkscape="http://www.inkscape.org/namespaces/inkscape"
   xmlns:sodipodi="http://sodipodi.sourceforge.net/DTD/sodipodi-0.dtd"
   xmlns="http://www.w3.org/2000/svg"
   xmlns:svg="http://www.w3.org/2000/svg"><defs
     id="defs1" /><sodipodi:namedview
     id="namedview1"
     pagecolor="#ffffff"
     bordercolor="#666666"
     borderopacity="1.0"
     inkscape:showpageshadow="2"
     inkscape:pageopacity="0.0"
     inkscape:pagecheckerboard="0"
     inkscape:deskcolor="#d1d1d1"
     showgrid="false"
     inkscape:zoom="1"
     inkscape:cx="-2577"
     inkscape:cy="-244.5"
     inkscape:window-width="2560"
     inkscape:window-height="1351"
     inkscape:window-x="2551"
     inkscape:window-y="-9"
     inkscape:window-maximized="1"
     inkscape:current-layer="g1" /><g
     inkscape:groupmode="layer"
     inkscape:label="Image"
     id="g1"
     transform="translate(2476.7197,10.266811)"><path
       d="m -2371.2961,219.98824 c -21.7541,0 -40.5798,-4.70641 -56.477,-14.11924 -15.6881,-9.62201 -27.8202,-22.90456 -36.3963,-39.84765 -8.3669,-17.15227 -12.5504,-36.91921 -12.5504,-59.30082 0,-22.59079 4.1835,-42.35774 12.5504,-59.30083 8.5761,-17.15227 20.7082,-30.5394 36.3963,-40.16141 15.8972,-9.622 34.7229,-14.433 56.477,-14.433 26.1467,0 47.4825,6.48439 64.0072,19.45318 16.5247,12.75961 26.9834,30.85316 31.3761,54.28065 h -41.4164 c -2.9285,-12.34127 -8.8899,-22.06786 -17.8844,-29.17977 -8.9945,-7.11192 -21.1266,-10.66788 -36.3963,-10.66788 -13.8055,0 -25.7284,3.2422 -35.7687,9.7266 -9.8312,6.27521 -17.4661,15.47887 -22.9046,27.61096 -5.2293,11.92292 -7.844,26.14675 -7.844,42.6715 0,16.52474 2.6147,30.74857 7.844,42.67149 5.4385,11.71375 13.0734,20.81282 22.9046,27.29721 10.0403,6.27522 21.9632,9.41283 35.7687,9.41283 15.2697,0 27.4018,-3.2422 36.3963,-9.72659 8.9945,-6.69357 14.9559,-15.89723 17.8844,-27.61097 h 41.4164 c -4.1835,22.17244 -14.6422,39.63847 -31.3761,52.39808 -16.5247,12.55044 -37.8605,18.82566 -64.0072,18.82566 z m 124.8384,-3.76513 V 58.08757 h 33.5724 l 3.4514,29.49354 v 0 c 0,0 8.4716,-12.75962 14.1193,-17.57062 5.6477,-5.02017 12.2366,-8.88989 19.7669,-11.60916 7.7395,-2.71926 16.211,-4.07889 25.4146,-4.07889 v 39.84765 h -13.1779 c -6.2753,0 -12.2367,0.83669 -17.8844,2.51008 -5.6477,1.46422 -10.5633,3.97431 -14.7468,7.53027 -3.9743,3.34678 -7.1119,8.05319 -9.4128,14.11924 -2.3009,5.85687 -3.4514,13.28255 -3.4514,22.27703 v 75.6164 z m 126.1317,0 V 58.08757 h 37.6514 v 158.13554 z m 159.6273,3.76513 c -8.367,0 -15.8973,-1.15046 -22.5908,-3.45137 -6.6936,-2.09174 -12.5505,-5.02017 -17.5706,-8.78531 -5.0202,-3.9743 -12.5505,-13.49172 -12.5505,-13.49172 v 0 l -4.0789,21.96327 h -33.5724 V -9.6848 h 37.6513 v 90.99069 c 5.0202,-7.73944 11.8184,-14.11925 20.3945,-19.13942 8.5761,-5.22935 19.244,-7.84403 32.0036,-7.84403 14.8513,0 27.9247,3.66055 39.2201,10.98164 11.5046,7.11191 20.4991,16.94309 26.9835,29.49353 6.6935,12.34127 10.0403,26.5651 10.0403,42.67149 0,15.68805 -3.2422,29.8073 -9.7266,42.35774 -6.4844,12.55044 -15.4789,22.38162 -26.9834,29.49353 -11.2954,7.11191 -24.3688,10.66787 -39.2201,10.66787 z m -7.8441,-32.63114 c 8.7853,0 16.6294,-2.09174 23.5321,-6.27522 6.9027,-4.39265 12.2367,-10.24953 16.0018,-17.57062 3.9743,-7.53026 5.9615,-16.31557 5.9615,-26.35592 0,-9.83118 -1.9872,-18.5119 -5.9615,-26.04216 -3.7651,-7.53027 -9.0991,-13.38714 -16.0018,-17.57062 -6.9027,-4.18348 -14.7468,-6.27522 -23.5321,-6.27522 -8.9945,0 -16.9431,2.09174 -23.8458,6.27522 -6.6936,4.18348 -12.0275,10.04035 -16.0018,17.57062 -3.7651,7.53026 -5.6477,16.21098 -5.6477,26.04216 0,10.04035 1.8826,18.82566 5.6477,26.35592 3.9743,7.32109 9.3082,13.17797 16.0018,17.57062 6.9027,4.18348 14.8513,6.27522 23.8458,6.27522 z m 110.1705,28.86601 V -9.6848 h 37.6513 v 225.90791 z m 143.7428,3.76513 c -15.6881,0 -29.4936,-3.34678 -41.4165,-10.04035 -11.9229,-6.90274 -21.2311,-16.52474 -27.9247,-28.86601 -6.6935,-12.34127 -10.0403,-26.5651 -10.0403,-42.67149 0,-16.73392 3.2422,-31.3761 9.7265,-43.92654 6.6936,-12.55044 16.0019,-22.38162 27.9248,-29.49354 12.1321,-7.11191 26.1467,-10.66787 42.0439,-10.66787 15.4789,0 28.9707,3.45137 40.4752,10.35411 11.5046,6.90275 20.3945,16.21099 26.6697,27.92473 6.2752,11.50457 9.4128,24.47336 9.4128,38.90636 v 6.90275 c 0,2.51009 -0.2092,5.12476 -0.6275,7.84402 h -128.642 v -24.1596 h 91.3044 c -0.4183,-11.50457 -4.288,-20.49905 -11.6091,-26.98344 -7.3211,-6.69357 -16.4201,-10.04035 -27.2972,-10.04035 -7.7395,0 -14.8514,1.77798 -21.3358,5.33393 -6.4844,3.55596 -11.6092,8.8899 -15.3743,16.00181 -3.7651,6.90275 -5.6477,15.68806 -5.6477,26.35593 v 9.09907 c 0,9.83117 1.778,18.30272 5.334,25.41464 3.7651,7.11191 8.7853,12.55044 15.0605,16.31557 6.4844,3.55595 13.7009,5.33393 21.6495,5.33393 8.7853,0 16.0018,-1.88256 21.6495,-5.64769 5.8569,-3.76513 10.1449,-8.78531 12.8642,-15.06053 h 38.2789 c -2.9285,9.83118 -7.7395,18.72107 -14.433,26.66968 -6.6936,7.73944 -14.956,13.91007 -24.7872,18.5119 -9.8311,4.39265 -20.9173,6.58898 -33.2586,6.58898 z m 173.2752,-3.76513 c -10.6679,0 -19.9761,-1.67339 -27.9248,-5.02018 -7.7394,-3.34678 -13.8054,-8.88989 -18.1981,-16.62933 -4.3927,-7.73943 -6.589,-18.19813 -6.589,-31.3761 V 89.77743 h -26.9834 V 58.08757 h 26.9834 l 4.3927,-41.73021 h 33.2586 v 41.73021 h 42.9853 v 31.68986 h -42.9853 v 73.42007 c 0,7.94861 1.6734,13.49173 5.0202,16.62934 3.556,2.92843 9.4129,4.39265 17.5706,4.39265 h 19.4532 v 32.00362 z"
       id="text23"
       style="font-weight:600;font-size:313.761px;line-height:1.25;font-family:'DM Sans';-inkscape-font-specification:'DM Sans, Semi-Bold';letter-spacing:0px;word-spacing:0px;stroke-width:0.999996"
       aria-label="Criblet"
       sodipodi:nodetypes="sccsccscccssccsccsccccsccccsccccscccscccccccsccscccccccsccsscssccscssccsccscccccscssccsscsscccccsscssccscccccsscssccccccccccscsccs" /><path
       id="path30"
       style="fill:#000000;fill-opacity:1;stroke:none;stroke-width:14;stroke-linecap:round;stroke-opacity:1;paint-order:fill markers stroke"
       d="m -2102.3105,-10.26562 c -6.5622,0.0633 -13.0561,2.9016 -17.467,7.77723 -5.288,5.67585 -7.4892,14.02244 -5.6865,21.56787 1.6078,7.19026 6.7539,13.46216 13.4877,16.45065 6.8591,3.14693 15.1988,2.75324 21.7267,-1.03586 6.5451,-3.67832 11.1094,-10.6065 11.9163,-18.06946 1.0306,-8.14225 -2.5649,-16.66197 -9.0804,-21.64382 -4.2166,-3.28255 -9.5506,-5.10113 -14.8968,-5.04661 z" /><circle
       style="fill:#ffffff;fill-opacity:1;stroke:none;stroke-width:14;stroke-linecap:round;stroke-opacity:1;paint-order:fill markers stroke"
       id="circle30"
       cx="-2109.4268"
       cy="4.0351028"
       r="6.5229549" /><circle
       style="fill:#ffffff;fill-opacity:1;stroke:none;stroke-width:14;stroke-linecap:round;stroke-opacity:1;paint-order:fill markers stroke"
       id="circle31"
       cx="-2101.6423"
       cy="12.790337"
       r="3.6193871" /></g></svg>
